<?xml version="1.0" encoding="UTF-8"?>
<svg version="1.1" viewBox="0 0 2000 2000" width="500" height="500" xmlns="http://www.w3.org/2000/svg">
<path transform="translate(980,422)" d="m0 0h16l21 1 22 3 23 7 18 8 14 8 12 8 13 10 10 9 8 7 10 11 10 13 10 15 8 15 10 24 6 21 4 21 1 10v31l-3 20-5 23-8 24-8 16-8 14-10 13-9 11-19 19-13 10-14 9-17 9-24 9-25 8-1 5-1 728-1 1h-83l-1-1-1-26v-18l1-29h-189l-1-1-1-57 1-12 96-1v-99l1-2h92v-54l1-74v-359l-16-5-29-11-17-8-18-12-14-12-18-18-11-14-10-14-9-16-8-16-8-24-4-19-1-10v-39l2-20 6-25 6-17 9-19 8-14 12-17 10-11 7-8 9-9 11-9 16-11 17-10 20-9 20-6 15-3zm3 89-20 4-16 8-13 10-8 9-7 14-4 14-2 12v14l4 17 5 12 7 11 11 11 13 8 12 5 18 3h16l12-2 12-5 11-6 10-8 8-10 8-14 4-12 2-10v-19l-4-16-8-17-9-11-12-9-10-6-15-5-10-2z" fill="#FEFEFE"/>
<path transform="translate(874,896)" d="m0 0 2 4-1 332-3 1h-83l-1-5v-122l-11 8-20 20-2 3h-2l-2 4-10 10-6 8-4-2-13-14-9-11-15-16-7-7-8-6h-3l1 224 1 77-1 1-47 1h-36l-2-2-1-20v-337l1-146h4l11 9 72 72 8 7 46 46 4-2 1-2h2l2-4 60-60 6-5 2-3h2l2-4 16-16h2l2-4 8-7 29-29z" fill="#FEFEFE"/>
<path transform="translate(1103,907)" d="m0 0h83l2 2v408h214l2 3-1 85-1 1h-299l-1-1v-497z" fill="#FEFEFE"/>
<path transform="translate(757,1317)" d="m0 0h62l1 2v66h-62l-2-4v-63z" fill="#FEFEFE"/>
</svg>
