<?xml version="1.0" encoding="UTF-8"?>
<svg version="1.1" viewBox="0 0 1080 1080" width="1080" height="1080" xmlns="http://www.w3.org/2000/svg">
<path transform="translate(520,228)" d="m0 0h29l13 2 18 6 14 8 13 10 8 7 9 11 9 14 6 13 4 11 3 16v27l-4 20-6 15-6 11-10 13-14 14-13 9-12 6-21 7-2 1-1 396h-45l-1-1-1-9v-20l1-10h-102l-1-1v-38h53l-1-13v-42h50l1-263-7-1-20-8-10-5-13-10-12-12-11-15-8-15-4-11-3-13v-35l4-18 7-17 8-13 9-11 13-13 14-9 16-8 13-4zm13 48-15 3-11 7-7 7-5 11-2 11v7l5 16 7 9 8 6 10 4 6 1h12l13-4 8-6 8-9 4-8 2-11-1-12-4-11-7-9-10-7-11-4z" fill="#090708"/>
<path transform="translate(471,485)" d="m0 0h2v181l-46 1-1-1v-68l-8 6-8 8-7 8-5 6-4-1-12-13-7-8-8-7-2-1 1 21v142l-1 1h-45v-274l5 2 51 51 8 7 3 3v2h2l7 8 73-73z" fill="#090708"/>
<path transform="translate(601,489)" d="m0 0h31l9 1 1 1v220h116v49h-162l-1-1v-269z" fill="#090708"/>
<path transform="translate(408,711)" d="m0 0h35v37l-1 1h-31l-2-1-1-3z" fill="#090708"/>
</svg>
